<svg width="25" height="20" viewBox="0 0 25 20" fill="none" xmlns="http://www.w3.org/2000/svg">
<g id="Img">
<path id="Vector" d="M8.14478 17.1495H4.72129V6.1202H8.14478V17.1495ZM6.43119 4.6157C5.33647 4.6157 4.44853 3.70858 4.44853 2.61339C4.44853 2.08733 4.65742 1.58282 5.02924 1.21084C5.40106 0.838859 5.90536 0.629883 6.43119 0.629883C6.95703 0.629883 7.46133 0.838859 7.83315 1.21084C8.20497 1.58282 8.41386 2.08733 8.41386 2.61339C8.41386 3.70858 7.52555 4.6157 6.43119 4.6157ZM20.9578 17.1495H17.5417V11.7805C17.5417 10.501 17.5159 8.86001 15.7618 8.86001C13.9818 8.86001 13.7091 10.2502 13.7091 11.6883V17.1495H10.2893V6.1202H13.5727V7.6247H13.6206C14.0777 6.75814 15.1941 5.84364 16.8598 5.84364C20.3246 5.84364 20.9615 8.1262 20.9615 11.091V17.1495H20.9578Z" fill="white"/>
</g>
</svg>
