<svg width="25" height="20" viewBox="0 0 25 20" fill="none" xmlns="http://www.w3.org/2000/svg">
<g id="Img">
<path id="Vector" d="M5.408 4.76023C5.08363 4.76023 4.81825 5.02573 4.81825 5.35023V6.16517L11.1765 11.3867C11.9395 12.0135 13.0342 12.0135 13.7972 11.3867L20.1517 6.16517V5.35023C20.1517 5.02573 19.8863 4.76023 19.562 4.76023H5.408ZM4.81825 8.45511V14.7902C4.81825 15.1147 5.08363 15.3802 5.408 15.3802H19.562C19.8863 15.3802 20.1517 15.1147 20.1517 14.7902V8.45511L14.9177 12.7547C13.5023 13.9163 11.464 13.9163 10.0523 12.7547L4.81825 8.45511ZM3.049 5.35023C3.049 4.04855 4.10686 2.99023 5.408 2.99023H19.562C20.8631 2.99023 21.921 4.04855 21.921 5.35023V14.7902C21.921 16.0919 20.8631 17.1502 19.562 17.1502H5.408C4.10686 17.1502 3.049 16.0919 3.049 14.7902V5.35023Z" fill="white"/>
</g>
</svg>
