<?xml version="1.0" standalone="no"?><svg xmlns:xlink="http://www.w3.org/1999/xlink" xmlns="http://www.w3.org/2000/svg" viewBox="0 0 1000 545.4545454545455" preserveAspectRatio="xMaxYMax slice"><g transform="scale(1.4545454545454546)"><rect x="0" y="0" width="687.5" height="375" fill="#ffffff"/><circle cx="31.25" cy="31.25" r="6.25" fill="#ff9db4"/><circle cx="93.75" cy="31.25" r="6.25" fill="#3658e5"/><circle cx="156.25" cy="31.25" r="6.25" fill="#bbc6f6"/><circle cx="218.75" cy="31.25" r="6.25" fill="#ffe6ec"/><circle cx="281.25" cy="31.25" r="6.25" fill="#fff7f9"/><circle cx="343.75" cy="31.25" r="6.25" fill="#d8dffa"/><circle cx="406.25" cy="31.25" r="6.25" fill="#3d5ee6"/><circle cx="468.75" cy="31.25" r="6.25" fill="#3154e4"/><circle cx="531.25" cy="31.25" r="6.25" fill="#5a76ea"/><circle cx="593.75" cy="31.25" r="6.25" fill="#aebbf4"/><circle cx="656.25" cy="31.25" r="6.25" fill="#879bef"/><circle cx="31.25" cy="93.75" r="6.25" fill="#ffbfce"/><circle cx="93.75" cy="93.75" r="6.25" fill="#6b84ec"/><circle cx="156.25" cy="93.75" r="6.25" fill="#ffbdcd"/><circle cx="218.75" cy="93.75" r="6.25" fill="#fff6f8"/><circle cx="281.25" cy="93.75" r="6.25" fill="#ffa0b7"/><circle cx="343.75" cy="93.75" r="6.25" fill="#b0bdf5"/><circle cx="406.25" cy="93.75" r="6.25" fill="#ff7898"/><circle cx="468.75" cy="93.75" r="6.25" fill="#d2d9f9"/><circle cx="531.25" cy="93.75" r="6.25" fill="#ff93ad"/><circle cx="593.75" cy="93.75" r="6.25" fill="#ff809e"/><circle cx="656.25" cy="93.75" r="6.25" fill="#eceffd"/><circle cx="31.25" cy="156.25" r="6.25" fill="#dfe4fb"/><circle cx="93.75" cy="156.25" r="6.25" fill="#506ee8"/><circle cx="156.25" cy="156.25" r="6.25" fill="#b7c3f6"/><circle cx="218.75" cy="156.25" r="6.25" fill="#acbaf4"/><circle cx="281.25" cy="156.25" r="6.25" fill="#cdd5f8"/><circle cx="343.75" cy="156.25" r="6.25" fill="#385ae5"/><circle cx="406.25" cy="156.25" r="6.25" fill="#ff678b"/><circle cx="468.75" cy="156.25" r="6.25" fill="#dce2fa"/><circle cx="531.25" cy="156.25" r="6.25" fill="#5471e9"/><circle cx="593.75" cy="156.25" r="6.25" fill="#ffa6bb"/><circle cx="656.25" cy="156.25" r="6.25" fill="#1a41e1"/><circle cx="31.25" cy="218.75" r="6.25" fill="#b8c4f6"/><circle cx="93.75" cy="218.75" r="6.25" fill="#a8b6f4"/><circle cx="156.25" cy="218.75" r="6.25" fill="#6881eb"/><circle cx="218.75" cy="218.75" r="6.25" fill="#627ceb"/><circle cx="281.25" cy="218.75" r="6.25" fill="#ffa0b7"/><circle cx="343.75" cy="218.75" r="6.25" fill="#fff5f7"/><circle cx="406.25" cy="218.75" r="6.25" fill="#254ae3"/><circle cx="468.75" cy="218.75" r="6.25" fill="#ff678b"/><circle cx="531.25" cy="218.75" r="6.25" fill="#8a9ef0"/><circle cx="593.75" cy="218.75" r="6.25" fill="#ffcdd9"/><circle cx="656.25" cy="218.75" r="6.25" fill="#ffa2b8"/><circle cx="31.25" cy="281.25" r="6.25" fill="#ffd0db"/><circle cx="93.75" cy="281.25" r="6.25" fill="#768ded"/><circle cx="156.25" cy="281.25" r="6.25" fill="#ff658a"/><circle cx="218.75" cy="281.25" r="6.25" fill="#5773e9"/><circle cx="281.25" cy="281.25" r="6.25" fill="#b7c3f6"/><circle cx="343.75" cy="281.25" r="6.25" fill="#ff7999"/><circle cx="406.25" cy="281.25" r="6.25" fill="#617bea"/><circle cx="468.75" cy="281.25" r="6.25" fill="#dce2fa"/><circle cx="531.25" cy="281.25" r="6.25" fill="#ff6a8d"/><circle cx="593.75" cy="281.25" r="6.25" fill="#ff4974"/><circle cx="656.25" cy="281.25" r="6.25" fill="#3255e4"/><circle cx="31.25" cy="343.75" r="6.25" fill="#ff7898"/><circle cx="93.75" cy="343.75" r="6.25" fill="#ffa0b7"/><circle cx="156.25" cy="343.75" r="6.25" fill="#7a91ee"/><circle cx="218.75" cy="343.75" r="6.25" fill="#ffa4ba"/><circle cx="281.25" cy="343.75" r="6.25" fill="#bbc6f6"/><circle cx="343.75" cy="343.75" r="6.25" fill="#fff8fa"/><circle cx="406.25" cy="343.75" r="6.25" fill="#ffd4de"/><circle cx="468.75" cy="343.75" r="6.25" fill="#ff98b1"/><circle cx="531.25" cy="343.75" r="6.25" fill="#4a69e8"/><circle cx="593.75" cy="343.75" r="6.25" fill="#9eaef2"/><circle cx="656.25" cy="343.75" r="6.25" fill="#506de8"/></g></svg>