<svg width="861" height="350" viewBox="0 0 861 350" fill="none" xmlns="http://www.w3.org/2000/svg">
<g clip-path="url(#clip0_2_717)">
<g clip-path="url(#clip1_2_717)">
<g clip-path="url(#clip2_2_717)">
<path fill-rule="evenodd" clip-rule="evenodd" d="M512.713 44.3765H176.73C174.062 44.3765 171.647 45.4572 169.899 47.2042C168.151 48.9518 167.069 51.3662 167.069 54.0331V284.123C167.069 286.788 168.151 289.203 169.9 290.951C171.648 292.698 174.063 293.779 176.73 293.779H512.713C515.381 293.779 517.796 292.699 519.544 290.952C521.292 289.204 522.374 286.79 522.374 284.123V54.0331C522.374 51.3676 521.292 48.953 519.543 47.2049C517.795 45.4576 515.38 44.3765 512.713 44.3765Z" fill="white" stroke="#141C3A" stroke-width="2.75964"/>
<path fill-rule="evenodd" clip-rule="evenodd" d="M496.159 65.7637H192.939C191.797 65.7637 190.762 66.2274 190.013 66.9779C189.265 67.7272 188.802 68.7622 188.802 69.9054V241.344C188.802 242.487 189.264 243.522 190.013 244.272C190.761 245.022 191.796 245.485 192.939 245.485H496.159C497.301 245.485 498.336 245.022 499.085 244.271C499.833 243.522 500.296 242.487 500.296 241.344V69.9054C500.296 68.762 499.833 67.7269 499.085 66.9775C498.336 66.2274 497.302 65.7637 496.159 65.7637Z" fill="#6E07F3" stroke="#6E07F3" stroke-width="2.75964"/>
<path fill-rule="evenodd" clip-rule="evenodd" d="M370.369 293.779H319.419L315.979 338.279H373.808L370.369 293.779Z" fill="white" stroke="#141C3A" stroke-width="2.75964"/>
<path fill-rule="evenodd" clip-rule="evenodd" d="M394.739 348.282H295.049C294.953 348.282 294.867 348.244 294.805 348.181C294.741 348.118 294.703 348.031 294.703 347.934V343.28C294.703 341.899 295.263 340.649 296.168 339.744C297.074 338.838 298.325 338.279 299.707 338.279H390.081C391.462 338.279 392.714 338.839 393.619 339.744C394.525 340.649 395.085 341.899 395.085 343.28V347.934C395.085 348.031 395.047 348.118 394.984 348.181C394.921 348.244 394.835 348.282 394.739 348.282Z" fill="white" stroke="#141C3A" stroke-width="2.75964"/>
<path d="M344.894 277.911C348.418 277.911 351.276 275.054 351.276 271.53C351.276 268.005 348.418 265.148 344.894 265.148C341.369 265.148 338.512 268.005 338.512 271.53C338.512 275.054 341.369 277.911 344.894 277.911Z" stroke="#141C3A" stroke-width="2.75964"/>
<path d="M194.321 214.095H142.578C138.005 214.095 134.299 217.801 134.299 222.374V340.003C134.299 344.576 138.005 348.282 142.578 348.282H194.321C198.893 348.282 202.6 344.576 202.6 340.003V222.374C202.6 217.801 198.893 214.095 194.321 214.095Z" fill="white" stroke="#141C3A" stroke-width="2.75964"/>
<path fill-rule="evenodd" clip-rule="evenodd" d="M202.6 229.272H134.299V328.378H202.6V229.272Z" fill="#141C3A" stroke="#141C3A" stroke-width="2.75964"/>
<path d="M183.627 220.304H153.616C152.854 220.304 152.236 220.921 152.236 221.684C152.236 222.446 152.854 223.063 153.616 223.063H183.627C184.389 223.063 185.007 222.446 185.007 221.684C185.007 220.921 184.389 220.304 183.627 220.304Z" fill="#141C3A"/>
<path d="M172.52 338.072C172.52 335.9 170.759 334.139 168.587 334.139C166.415 334.139 164.655 335.9 164.655 338.072C164.655 340.244 166.415 342.004 168.587 342.004C170.759 342.004 172.52 340.244 172.52 338.072Z" fill="#141C3A"/>
<path d="M153.616 283.775C156.474 283.775 158.79 281.459 158.79 278.601C158.79 275.743 156.474 273.427 153.616 273.427C150.758 273.427 148.442 275.743 148.442 278.601C148.442 281.459 150.758 283.775 153.616 283.775Z" fill="#6E07F3" stroke="#6E07F3" stroke-width="2.75964"/>
<path d="M188.457 269.632H167.069C166.307 269.632 165.69 270.25 165.69 271.012C165.69 271.774 166.307 272.392 167.069 272.392H188.457C189.219 272.392 189.836 271.774 189.836 271.012C189.836 270.25 189.219 269.632 188.457 269.632Z" fill="white"/>
<path d="M181.557 277.221H167.069C166.307 277.221 165.69 277.839 165.69 278.601C165.69 279.363 166.307 279.981 167.069 279.981H181.557C182.32 279.981 182.937 279.363 182.937 278.601C182.937 277.839 182.32 277.221 181.557 277.221Z" fill="white"/>
<path d="M174.658 284.811H167.069C166.307 284.811 165.69 285.428 165.69 286.19C165.69 286.952 166.307 287.57 167.069 287.57H174.658C175.42 287.57 176.038 286.952 176.038 286.19C176.038 285.428 175.42 284.811 174.658 284.811Z" fill="white"/>
<path d="M99.2856 279.291C128.529 279.291 152.236 255.585 152.236 226.341C152.236 197.097 128.529 173.39 99.2856 173.39C70.0418 173.39 46.335 197.097 46.335 226.341C46.335 255.585 70.0418 279.291 99.2856 279.291Z" fill="#5BE9B9" stroke="#141C3A" stroke-width="2.75964"/>
<path fill-rule="evenodd" clip-rule="evenodd" d="M669.328 162.352H433.372C430.705 162.352 428.291 163.433 426.544 165.18C424.797 166.928 423.716 169.343 423.716 172.01V324.136C423.716 326.801 424.797 329.216 426.545 330.965C428.292 332.713 430.706 333.794 433.372 333.794H669.328C671.995 333.794 674.409 332.713 676.156 330.966C677.903 329.218 678.983 326.803 678.983 324.136V172.01C678.983 169.345 677.902 166.929 676.155 165.181C674.407 163.433 671.994 162.352 669.328 162.352Z" fill="white" stroke="#141C3A" stroke-width="2.75964"/>
<path fill-rule="evenodd" clip-rule="evenodd" d="M696.234 333.794H406.466C406.371 333.794 406.286 333.833 406.225 333.895C406.162 333.957 406.124 334.044 406.124 334.139V341.038C406.124 343.039 406.934 344.85 408.246 346.161C409.557 347.472 411.369 348.283 413.37 348.283H689.329C691.331 348.283 693.142 347.472 694.454 346.161C695.765 344.85 696.576 343.039 696.576 341.038V334.139C696.576 334.044 696.537 333.958 696.474 333.895C696.413 333.833 696.328 333.794 696.234 333.794Z" fill="white" stroke="#141C3A" stroke-width="2.75964"/>
<path fill-rule="evenodd" clip-rule="evenodd" d="M570.422 333.949L531.793 333.949C532.466 335.72 533.595 337.266 535.037 338.443C536.878 339.947 539.23 340.848 541.792 340.848H560.424C562.985 340.848 565.337 339.946 567.178 338.443C568.62 337.266 569.75 335.72 570.422 333.949Z" fill="white" stroke="#141C3A" stroke-width="2.75964"/>
<path d="M666.015 177.185H436.48C434.955 177.185 433.72 178.42 433.72 179.944V316.495C433.72 318.019 434.955 319.254 436.48 319.254H666.015C667.539 319.254 668.775 318.019 668.775 316.495V179.944C668.775 178.42 667.539 177.185 666.015 177.185Z" fill="#5BE9B9"/>
<path d="M337.132 70.5931C338.085 70.5931 338.857 69.8209 338.857 68.8683C338.857 67.9158 338.085 67.1436 337.132 67.1436C336.18 67.1436 335.408 67.9158 335.408 68.8683C335.408 69.8209 336.18 70.5931 337.132 70.5931Z" fill="#293347"/>
<path fill-rule="evenodd" clip-rule="evenodd" d="M395.085 21.2646H241.235V171.321C241.235 173.227 242.007 174.951 243.255 176.199C244.505 177.448 246.231 178.219 248.137 178.219H388.183C390.089 178.219 391.815 177.447 393.064 176.199C394.313 174.95 395.085 173.226 395.085 171.321V21.2646Z" fill="#141C3A" stroke="#141C3A" stroke-width="2.75964"/>
<path fill-rule="evenodd" clip-rule="evenodd" d="M388.183 2.29199H248.137C246.231 2.29199 244.505 3.06428 243.256 4.31301C242.007 5.56173 241.235 7.28687 241.235 9.19241V18.5049H395.085V9.19241C395.085 7.28743 394.312 5.56227 393.063 4.31338C391.814 3.06462 390.089 2.29199 388.183 2.29199Z" fill="white" stroke="#141C3A" stroke-width="2.75964"/>
<path d="M253.308 13.6755C255.023 13.6755 256.413 12.2855 256.413 10.5709C256.413 8.85629 255.023 7.46631 253.308 7.46631C251.594 7.46631 250.204 8.85629 250.204 10.5709C250.204 12.2855 251.594 13.6755 253.308 13.6755Z" fill="#141C3A"/>
<path d="M263.657 13.6755C265.372 13.6755 266.762 12.2855 266.762 10.5709C266.762 8.85629 265.372 7.46631 263.657 7.46631C261.942 7.46631 260.552 8.85629 260.552 10.5709C260.552 12.2855 261.942 13.6755 263.657 13.6755Z" fill="#6E07F3"/>
<path d="M274.006 13.6755C275.72 13.6755 277.11 12.2855 277.11 10.5709C277.11 8.85629 275.72 7.46631 274.006 7.46631C272.291 7.46631 270.901 8.85629 270.901 10.5709C270.901 12.2855 272.291 13.6755 274.006 13.6755Z" fill="#5BE9B9"/>
<path opacity="0.54" d="M262.622 119.232H259.172C258.41 119.232 257.793 119.85 257.793 120.612C257.793 121.374 258.41 121.992 259.172 121.992H262.622C263.384 121.992 264.002 121.374 264.002 120.612C264.002 119.85 263.384 119.232 262.622 119.232Z" fill="#535B6B"/>
<path opacity="0.54" d="M262.622 50.2407H259.172C258.41 50.2407 257.793 50.8585 257.793 51.6205C257.793 52.3826 258.41 53.0004 259.172 53.0004H262.622C263.384 53.0004 264.002 52.3826 264.002 51.6205C264.002 50.8585 263.384 50.2407 262.622 50.2407Z" fill="#535B6B"/>
<path fill-rule="evenodd" clip-rule="evenodd" d="M269.521 50.2407H278.835C279.597 50.2407 280.215 50.8585 280.215 51.6205C280.215 52.3826 279.597 53.0004 278.835 53.0004H269.521C268.759 53.0004 268.141 52.3826 268.141 51.6205C268.141 50.8585 268.759 50.2407 269.521 50.2407Z" fill="#6E07F3"/>
<path fill-rule="evenodd" clip-rule="evenodd" d="M285.044 50.2407H294.358C295.12 50.2407 295.738 50.8585 295.738 51.6205C295.738 52.3826 295.12 53.0004 294.358 53.0004H285.044C284.282 53.0004 283.664 52.3826 283.664 51.6205C283.664 50.8585 284.282 50.2407 285.044 50.2407Z" fill="#5BE9B9"/>
<path fill-rule="evenodd" clip-rule="evenodd" d="M300.567 50.2407H317.815C318.577 50.2407 319.195 50.8585 319.195 51.6205C319.195 52.3826 318.577 53.0004 317.815 53.0004H300.567C299.805 53.0004 299.187 52.3826 299.187 51.6205C299.187 50.8585 299.805 50.2407 300.567 50.2407Z" fill="#6E07F3"/>
<path fill-rule="evenodd" clip-rule="evenodd" d="M324.024 50.2407H349.551C350.313 50.2407 350.931 50.8585 350.931 51.6205C350.931 52.3826 350.313 53.0004 349.551 53.0004H324.024C323.262 53.0004 322.644 52.3826 322.644 51.6205C322.644 50.8585 323.262 50.2407 324.024 50.2407Z" fill="#6E07F3"/>
<path opacity="0.54" d="M262.622 64.0391H259.172C258.41 64.0391 257.793 64.6568 257.793 65.4189C257.793 66.1809 258.41 66.7987 259.172 66.7987H262.622C263.384 66.7987 264.002 66.1809 264.002 65.4189C264.002 64.6568 263.384 64.0391 262.622 64.0391Z" fill="#535B6B"/>
<path opacity="0.54" d="M262.622 77.8374H259.172C258.41 77.8374 257.793 78.4552 257.793 79.2172C257.793 79.9793 258.41 80.597 259.172 80.597H262.622C263.384 80.597 264.002 79.9793 264.002 79.2172C264.002 78.4552 263.384 77.8374 262.622 77.8374Z" fill="#535B6B"/>
<path opacity="0.54" d="M262.622 91.6353H259.172C258.41 91.6353 257.793 92.253 257.793 93.0151C257.793 93.7771 258.41 94.3949 259.172 94.3949H262.622C263.384 94.3949 264.002 93.7771 264.002 93.0151C264.002 92.253 263.384 91.6353 262.622 91.6353Z" fill="#535B6B"/>
<path opacity="0.54" d="M262.622 105.434H259.172C258.41 105.434 257.793 106.051 257.793 106.813C257.793 107.575 258.41 108.193 259.172 108.193H262.622C263.384 108.193 264.002 107.575 264.002 106.813C264.002 106.051 263.384 105.434 262.622 105.434Z" fill="#535B6B"/>
<path opacity="0.54" d="M262.622 133.03H259.172C258.41 133.03 257.793 133.648 257.793 134.41C257.793 135.172 258.41 135.79 259.172 135.79H262.622C263.384 135.79 264.002 135.172 264.002 134.41C264.002 133.648 263.384 133.03 262.622 133.03Z" fill="#535B6B"/>
<path opacity="0.54" d="M262.622 146.828H259.172C258.41 146.828 257.793 147.446 257.793 148.208C257.793 148.97 258.41 149.588 259.172 149.588H262.622C263.384 149.588 264.002 148.97 264.002 148.208C264.002 147.446 263.384 146.828 262.622 146.828Z" fill="#535B6B"/>
<path d="M290.908 64.0391H269.521C268.759 64.0391 268.141 64.6568 268.141 65.4189C268.141 66.1809 268.759 66.7987 269.521 66.7987H290.908C291.67 66.7987 292.288 66.1809 292.288 65.4189C292.288 64.6568 291.67 64.0391 290.908 64.0391Z" fill="#6E07F3"/>
<path d="M335.753 64.0391H297.118C296.356 64.0391 295.738 64.6568 295.738 65.4189C295.738 66.1809 296.356 66.7987 297.118 66.7987H335.753C336.515 66.7987 337.132 66.1809 337.132 65.4189C337.132 64.6568 336.515 64.0391 335.753 64.0391Z" fill="#5BE9B9"/>
<path d="M356.45 64.0391H341.962C341.2 64.0391 340.582 64.6568 340.582 65.4189C340.582 66.1809 341.2 66.7987 341.962 66.7987H356.45C357.212 66.7987 357.83 66.1809 357.83 65.4189C357.83 64.6568 357.212 64.0391 356.45 64.0391Z" fill="#6E07F3"/>
<path d="M284.009 77.8374H269.521C268.759 77.8374 268.141 78.4552 268.141 79.2172C268.141 79.9793 268.759 80.597 269.521 80.597H284.009C284.771 80.597 285.389 79.9793 285.389 79.2172C285.389 78.4552 284.771 77.8374 284.009 77.8374Z" fill="#5BE9B9"/>
<path d="M304.707 77.8374H290.218C289.456 77.8374 288.839 78.4552 288.839 79.2172C288.839 79.9793 289.456 80.597 290.218 80.597H304.707C305.469 80.597 306.086 79.9793 306.086 79.2172C306.086 78.4552 305.469 77.8374 304.707 77.8374Z" fill="#6E07F3"/>
<path d="M318.505 77.8374H310.916C310.154 77.8374 309.536 78.4552 309.536 79.2172C309.536 79.9793 310.154 80.597 310.916 80.597H318.505C319.267 80.597 319.885 79.9793 319.885 79.2172C319.885 78.4552 319.267 77.8374 318.505 77.8374Z" fill="#6E07F3"/>
<path d="M301.257 91.6353H269.521C268.759 91.6353 268.141 92.253 268.141 93.0151C268.141 93.7771 268.759 94.3949 269.521 94.3949H301.257C302.019 94.3949 302.637 93.7771 302.637 93.0151C302.637 92.253 302.019 91.6353 301.257 91.6353Z" fill="#6E07F3"/>
<path d="M328.853 91.6353H307.466C306.704 91.6353 306.086 92.253 306.086 93.0151C306.086 93.7771 306.704 94.3949 307.466 94.3949H328.853C329.616 94.3949 330.233 93.7771 330.233 93.0151C330.233 92.253 329.616 91.6353 328.853 91.6353Z" fill="#6E07F3"/>
<path d="M301.257 105.434H269.521C268.759 105.434 268.141 106.051 268.141 106.813C268.141 107.575 268.759 108.193 269.521 108.193H301.257C302.019 108.193 302.637 107.575 302.637 106.813C302.637 106.051 302.019 105.434 301.257 105.434Z" fill="#6E07F3"/>
<path d="M349.551 105.434H307.466C306.704 105.434 306.086 106.051 306.086 106.813C306.086 107.575 306.704 108.193 307.466 108.193H349.551C350.313 108.193 350.931 107.575 350.931 106.813C350.931 106.051 350.313 105.434 349.551 105.434Z" fill="#5BE9B9"/>
<path d="M290.908 119.232H269.521C268.759 119.232 268.141 119.85 268.141 120.612C268.141 121.374 268.759 121.992 269.521 121.992H290.908C291.67 121.992 292.288 121.374 292.288 120.612C292.288 119.85 291.67 119.232 290.908 119.232Z" fill="#6E07F3"/>
<path d="M318.505 119.232H297.118C296.356 119.232 295.738 119.85 295.738 120.612C295.738 121.374 296.356 121.992 297.118 121.992H318.505C319.267 121.992 319.885 121.374 319.885 120.612C319.885 119.85 319.267 119.232 318.505 119.232Z" fill="#5BE9B9"/>
<path d="M335.753 119.232H324.714C323.952 119.232 323.334 119.85 323.334 120.612C323.334 121.374 323.952 121.992 324.714 121.992H335.753C336.515 121.992 337.132 121.374 337.132 120.612C337.132 119.85 336.515 119.232 335.753 119.232Z" fill="#6E07F3"/>
<path d="M311.606 133.03H269.521C268.759 133.03 268.141 133.648 268.141 134.41C268.141 135.172 268.759 135.79 269.521 135.79H311.606C312.368 135.79 312.986 135.172 312.986 134.41C312.986 133.648 312.368 133.03 311.606 133.03Z" fill="#6E07F3"/>
<path d="M287.459 146.828H269.521C268.759 146.828 268.141 147.446 268.141 148.208C268.141 148.97 268.759 149.588 269.521 149.588H287.459C288.221 149.588 288.839 148.97 288.839 148.208C288.839 147.446 288.221 146.828 287.459 146.828Z" fill="#5BE9B9"/>
<path fill-rule="evenodd" clip-rule="evenodd" d="M739.006 126.821H549.97V261.352C549.97 264.02 551.051 266.435 552.8 268.183C554.548 269.931 556.964 271.012 559.632 271.012H729.343C732.013 271.012 734.428 269.931 736.176 268.184C737.924 266.436 739.006 264.02 739.006 261.352V126.821Z" fill="white" stroke="#141C3A" stroke-width="2.75964"/>
<path fill-rule="evenodd" clip-rule="evenodd" d="M729.343 109.573H559.632C556.963 109.573 554.548 110.654 552.8 112.4C551.051 114.148 549.97 116.563 549.97 119.23V129.581H739.006V119.23C739.006 116.563 737.924 114.149 736.175 112.401C734.427 110.654 732.011 109.573 729.343 109.573Z" fill="#141C3A" stroke="#141C3A" stroke-width="2.75964"/>
<path d="M564.803 122.681C566.518 122.681 567.908 121.291 567.908 119.577C567.908 117.862 566.518 116.472 564.803 116.472C563.088 116.472 561.698 117.862 561.698 119.577C561.698 121.291 563.088 122.681 564.803 122.681Z" fill="white"/>
<path d="M575.152 122.681C576.866 122.681 578.256 121.291 578.256 119.577C578.256 117.862 576.866 116.472 575.152 116.472C573.437 116.472 572.047 117.862 572.047 119.577C572.047 121.291 573.437 122.681 575.152 122.681Z" fill="#6E07F3"/>
<path d="M585.5 122.681C587.215 122.681 588.605 121.291 588.605 119.577C588.605 117.862 587.215 116.472 585.5 116.472C583.786 116.472 582.396 117.862 582.396 119.577C582.396 121.291 583.786 122.681 585.5 122.681Z" fill="#5BE9B9"/>
<path d="M666.91 233.412C685.961 233.412 701.405 217.968 701.405 198.917C701.405 179.866 685.961 164.421 666.91 164.421C647.858 164.421 632.414 179.866 632.414 198.917C632.414 217.968 647.858 233.412 666.91 233.412Z" stroke="#6E07F3" stroke-width="3.1046"/>
<path fill-rule="evenodd" clip-rule="evenodd" d="M671.394 160.282H663.115V168.561H671.394V160.282Z" fill="#FFFFFE" stroke="#5BE9B9" stroke-width="2.75964"/>
<path fill-rule="evenodd" clip-rule="evenodd" d="M671.049 229.273H662.77V237.552H671.049V229.273Z" fill="#FFFFFE" stroke="#5BE9B9" stroke-width="2.75964"/>
<path fill-rule="evenodd" clip-rule="evenodd" d="M636.554 195.122H628.275V203.401H636.554V195.122Z" fill="#FFFFFE" stroke="#5BE9B9" stroke-width="2.75964"/>
<path d="M701.405 167.871V193.742" stroke="#141C3A" stroke-width="2.75964" stroke-linecap="square"/>
<path d="M701.405 204.091V229.963" stroke="#141C3A" stroke-width="2.75964" stroke-linecap="square"/>
<path d="M701.405 170.975C703.692 170.975 705.545 169.122 705.545 166.836C705.545 164.55 703.692 162.696 701.405 162.696C699.119 162.696 697.266 164.55 697.266 166.836C697.266 169.122 699.119 170.975 701.405 170.975Z" fill="#141C3A"/>
<path d="M701.405 236.517C703.692 236.517 705.545 234.663 705.545 232.377C705.545 230.091 703.692 228.238 701.405 228.238C699.119 228.238 697.266 230.091 697.266 232.377C697.266 234.663 699.119 236.517 701.405 236.517Z" fill="#141C3A"/>
<path fill-rule="evenodd" clip-rule="evenodd" d="M705.2 195.122H696.921V203.401H705.2V195.122Z" fill="#FFFFFE" stroke="#5BE9B9" stroke-width="2.75964"/>
<path d="M602.403 155.797H586.535C584.249 155.797 582.396 157.651 582.396 159.937V175.805C582.396 178.091 584.249 179.944 586.535 179.944H602.403C604.689 179.944 606.543 178.091 606.543 175.805V159.937C606.543 157.651 604.689 155.797 602.403 155.797Z" fill="#141C3A"/>
<path d="M602.403 186.843H586.535C584.249 186.843 582.396 188.697 582.396 190.983V206.851C582.396 209.137 584.249 210.99 586.535 210.99H602.403C604.689 210.99 606.543 209.137 606.543 206.851V190.983C606.543 188.697 604.689 186.843 602.403 186.843Z" fill="#5BE9B9"/>
<path d="M602.403 217.889H586.535C584.249 217.889 582.396 219.742 582.396 222.029V237.897C582.396 240.183 584.249 242.036 586.535 242.036H602.403C604.689 242.036 606.543 240.183 606.543 237.897V222.029C606.543 219.742 604.689 217.889 602.403 217.889Z" fill="#6E07F3"/>
<path d="M838.008 335.864C849.439 335.864 858.705 326.597 858.705 315.167C858.705 303.736 849.439 294.469 838.008 294.469C826.577 294.469 817.31 303.736 817.31 315.167C817.31 326.597 826.577 335.864 838.008 335.864Z" fill="white" stroke="#141C3A" stroke-width="2.75964"/>
<path d="M838.008 327.24C844.676 327.24 850.081 321.835 850.081 315.167C850.081 308.499 844.676 303.093 838.008 303.093C831.34 303.093 825.934 308.499 825.934 315.167C825.934 321.835 831.34 327.24 838.008 327.24Z" fill="white" stroke="#141C3A" stroke-width="2.75964"/>
<path d="M810.411 290.675C814.222 290.675 817.31 287.586 817.31 283.776C817.31 279.965 814.222 276.876 810.411 276.876C806.601 276.876 803.512 279.965 803.512 283.776C803.512 287.586 806.601 290.675 810.411 290.675Z" fill="#FFFFFE" stroke="#141C3A" stroke-width="2.75964"/>
<path fill-rule="evenodd" clip-rule="evenodd" d="M838.673 282.051H780.055C779.674 282.051 779.329 282.205 779.08 282.455C778.83 282.705 778.675 283.05 778.675 283.431V341.383C778.675 343.288 779.448 345.013 780.696 346.262C781.945 347.51 783.669 348.282 785.575 348.282H833.154C835.059 348.282 836.784 347.51 838.033 346.262C839.281 345.013 840.053 343.288 840.053 341.383V283.431C840.053 283.05 839.899 282.705 839.649 282.455C839.399 282.205 839.054 282.051 838.673 282.051Z" fill="white" stroke="#141C3A" stroke-width="2.75964"/>
<path fill-rule="evenodd" clip-rule="evenodd" d="M823.175 300.678H810.756C809.994 300.678 809.304 300.987 808.805 301.487C808.306 301.986 807.997 302.676 807.997 303.438V319.996C807.997 320.758 808.306 321.448 808.805 321.947C809.304 322.446 809.994 322.755 810.756 322.755H823.175C823.937 322.755 824.627 322.446 825.126 321.947C825.625 321.448 825.934 320.758 825.934 319.996V303.438C825.934 302.676 825.625 301.986 825.126 301.487C824.627 300.987 823.937 300.678 823.175 300.678Z" fill="#5BE9B9" stroke="#141C3A" stroke-width="2.75964"/>
<path d="M816.793 282.568V298.264" stroke="#141C3A" stroke-width="2.75964" stroke-linecap="square"/>
<path fill-rule="evenodd" clip-rule="evenodd" d="M739.35 329.379C733.749 329.379 728.679 331.649 725.008 335.32C721.657 338.671 719.473 343.19 719.118 348.213H759.583C759.228 343.19 757.044 338.671 753.693 335.32C750.022 331.649 744.952 329.379 739.35 329.379Z" fill="white" stroke="#141C3A" stroke-width="2.89763"/>
<path d="M740.73 331.035C740.73 330.273 740.113 329.655 739.35 329.655C738.588 329.655 737.971 330.273 737.971 331.035V332.759C737.971 333.521 738.588 334.139 739.35 334.139C740.113 334.139 740.73 333.521 740.73 332.759V331.035Z" fill="#141C3A"/>
<path fill-rule="evenodd" clip-rule="evenodd" d="M105.322 307.578H21.8433C16.2231 307.578 11.1349 309.856 7.45184 313.539C3.76876 317.222 1.49072 322.31 1.49072 327.93C1.49072 333.55 3.76876 338.639 7.45184 342.322C11.1349 346.005 16.2231 348.283 21.8433 348.283H105.322C105.894 348.283 106.411 348.051 106.786 347.677C107.16 347.302 107.392 346.785 107.392 346.213V343.01C107.392 342.286 107.112 341.623 106.652 341.129C106.191 340.634 105.55 340.308 104.828 340.257C100.053 339.917 96.5034 338.705 94.1237 336.735C91.6159 334.66 90.3161 331.74 90.3161 327.93C90.3161 324.115 91.6188 321.166 94.1553 319.041C96.5524 317.033 100.131 315.757 104.96 315.323C105.651 315.241 106.257 314.907 106.692 314.419C107.129 313.93 107.392 313.285 107.392 312.583V309.647C107.392 309.076 107.16 308.558 106.786 308.184C106.411 307.809 105.894 307.578 105.322 307.578Z" fill="#6E07F3" stroke="#141C3A" stroke-width="2.75964"/>
<path fill-rule="evenodd" clip-rule="evenodd" d="M101.109 315.512H21.4982C18.0689 315.512 14.9643 316.902 12.717 319.149C10.4697 321.396 9.07977 324.501 9.07977 327.93C9.07977 331.359 10.4697 334.464 12.717 336.711C14.9643 338.959 18.0689 340.349 21.4982 340.349C59.0625 340.349 85.7731 340.42 101.63 340.563C98.8546 339.814 95.6714 338.752 93.4112 336.43C91.5955 334.565 90.3161 331.91 90.3161 327.93C90.3161 323.912 91.6195 321.247 93.4624 319.389C95.5773 317.256 98.4839 316.216 101.109 315.512Z" fill="white" stroke="#141C3A" stroke-width="2.75964"/>
<path fill-rule="evenodd" clip-rule="evenodd" d="M20.0926 331.035H89.8251C90.573 331.035 91.1792 331.652 91.1792 332.414C91.1792 333.177 90.573 333.794 89.8251 333.794H20.0926C19.3447 333.794 18.7385 333.177 18.7385 332.414C18.7385 331.652 19.3447 331.035 20.0926 331.035Z" fill="#141C3A"/>
<path fill-rule="evenodd" clip-rule="evenodd" d="M20.0926 322.066H89.8251C90.573 322.066 91.1792 322.684 91.1792 323.446C91.1792 324.208 90.573 324.826 89.8251 324.826H20.0926C19.3447 324.826 18.7385 324.208 18.7385 323.446C18.7385 322.684 19.3447 322.066 20.0926 322.066Z" fill="#141C3A"/>
<path d="M86.403 238.71C84.7101 237.204 83.0172 235.699 81.3243 234.194C78.6265 231.799 75.9364 229.395 73.2386 226.999C72.6201 226.454 72.0017 225.901 71.3911 225.356C71.3911 226.078 71.3911 226.807 71.3911 227.529C73.084 226.024 74.7769 224.519 76.4698 223.014C79.1676 220.618 81.8576 218.215 84.5555 215.819C85.1739 215.274 85.7923 214.721 86.403 214.176C87.0059 213.638 86.9982 212.54 86.403 212.003C85.7614 211.411 84.8647 211.427 84.2153 212.003C82.5224 213.508 80.8295 215.013 79.1366 216.518C76.4388 218.914 73.7487 221.317 71.0509 223.713C70.4325 224.258 69.8141 224.811 69.2034 225.356C68.6082 225.886 68.6082 226.999 69.2034 227.529C70.8963 229.034 72.5892 230.539 74.2821 232.044C76.9799 234.44 79.67 236.844 82.3678 239.239C82.9862 239.785 83.6047 240.337 84.2153 240.883C84.8183 241.42 85.8155 241.52 86.403 240.883C86.9441 240.299 87.0446 239.285 86.403 238.71Z" fill="#141C3A"/>
<path d="M112.182 214.179C113.875 215.684 115.568 217.189 117.261 218.695C119.959 221.09 122.649 223.494 125.346 225.89C125.965 226.435 126.583 226.988 127.194 227.533C127.194 226.811 127.194 226.082 127.194 225.36C125.501 226.865 123.808 228.37 122.115 229.875C119.417 232.271 116.727 234.674 114.03 237.07C113.411 237.615 112.793 238.168 112.182 238.713C111.579 239.251 111.587 240.349 112.182 240.886C112.824 241.478 113.72 241.462 114.37 240.886C116.063 239.381 117.755 237.876 119.448 236.371C122.146 233.975 124.836 231.572 127.534 229.176C128.152 228.631 128.771 228.078 129.382 227.533C129.977 227.003 129.977 225.89 129.382 225.36C127.689 223.855 125.996 222.35 124.303 220.845C121.605 218.449 118.915 216.045 116.217 213.65C115.599 213.104 114.98 212.552 114.37 212.006C113.767 211.469 112.77 211.369 112.182 212.006C111.641 212.59 111.54 213.603 112.182 214.179Z" fill="#141C3A"/>
<path d="M93.7794 247.752C94.2432 246.37 94.6993 244.988 95.1631 243.598C96.2685 240.273 97.3739 236.956 98.4793 233.631C99.8089 229.623 101.139 225.622 102.476 221.614C103.628 218.151 104.779 214.687 105.931 211.224C106.48 209.543 107.098 207.869 107.609 206.164C107.616 206.141 107.624 206.118 107.632 206.095C107.887 205.335 107.338 204.383 106.55 204.206C105.699 204.014 104.919 204.459 104.648 205.281C104.184 206.663 103.728 208.045 103.264 209.435C102.159 212.76 101.053 216.077 99.9481 219.402C98.6185 223.411 97.2889 227.411 95.9516 231.42C94.7998 234.883 93.648 238.346 92.4962 241.809C91.9474 243.483 91.329 245.157 90.8188 246.862C90.8111 246.885 90.8033 246.908 90.7956 246.931C90.5405 247.691 91.0893 248.643 91.8778 248.82C92.7281 249.012 93.5089 248.566 93.7794 247.752Z" fill="#141C3A"/>
</g>
</g>
</g>
<defs>
<clipPath id="clip0_2_717">
<rect width="860" height="348.75" fill="white" transform="translate(0.0979004 0.912109)"/>
</clipPath>
<clipPath id="clip1_2_717">
<rect width="860" height="348.75" fill="white" transform="translate(0.0979004 0.912109)"/>
</clipPath>
<clipPath id="clip2_2_717">
<rect width="859.974" height="348.75" fill="white" transform="translate(0.110901 0.912109)"/>
</clipPath>
</defs>
</svg>
